Red.Riding.Hood.2011.720p.Bluray.x264.anoXmous

Format                           : MPEG-4
Format profile                   : Base Media
Codec ID                         : isom
File size                        : 700 MiB
Duration                         : 1h 40mn
Overall bit rate mode            : Variable
Overall bit rate                 : 975 Kbps


Video
ID                               : 1
Format                           : AVC
Format/Info                      : Advanced Video Codec
Format profile                   : High@L4.1
Format settings, CABAC           : Yes
Format settings, ReFrames        : 4 frames
Codec ID                         : avc1
Codec ID/Info                    : Advanced Video Coding
Duration                         : 1h 40mn
Bit rate                         : 902 Kbps
Maximum bit rate                 : 4 683 Kbps
Width                            : 1 280 pixels
Height                           : 528 pixels
Display aspect ratio             : 2.40:1
Frame rate mode                  : Constant
Frame rate                       : 23.976 fps
Color space                      : YUV
Chroma subsampling               : 4:2:0
Bit depth                        : 8 bits
Scan type                        : Progressive
Bits/(Pixel*Frame)               : 0.056
Stream size                      : 648 MiB (93%)
Writing library                  : x264 core 120 r2120 0c7dab9


Audio
ID                               : 2
Format                           : AAC
Format/Info                      : Advanced Audio Codec
Format profile                   : LC
Codec ID                         : 40
Duration                         : 1h 40mn
Bit rate mode                    : Variable
Bit rate                         : 69.8 Kbps
Maximum bit rate                 : 93.3 Kbps
Channel(s)                       : 2 channels
Channel positions                : Front: L R
Sampling rate                    : 48.0 KHz 
Compression mode                 : Lossy
Stream size                      : 50.1 MiB (7%)


Menu
00:00:00.000                     : Main Title/Elf Hunting
00:08:27.215                     : "A Good Little Girl"
00:15:49.115                     : Nothing to Fear
00:24:23.212                     : An Unwanting Suitor
00:33:14.659                     : "Have You No Heart?"
00:40:46.569                     : "Wolf Into Man"
00:49:13.701                     : Good at Being Bad
00:59:23.894                     : "Sleep, Child"
01:09:30.750                     : Begging for Mercy
01:18:28.454                     : Granny Knows Best
01:29:59.394                     : "Green in the Blue"
01:35:41.444                     : Heartless and Not Nice

                     SUB         :
					 
Complete name          : Red.Riding.Hood.2011.720p.Bluray.x264.anoXmous_dan.srt
File size                        : 47.4 KiB

Complete name         : Red.Riding.Hood.2011.720p.Bluray.x264.anoXmous_dut.srt
File size                        : 50.0 KiB

Complete name         : Red.Riding.Hood.2011.720p.Bluray.x264.anoXmous_fin.srt
File size                        : 51.0 KiB

Complete name         : Red.Riding.Hood.2011.720p.Bluray.x264.anoXmous_fre.srt
File size                        : 55.2 KiB

Complete name         : Red.Riding.Hood.2011.720p.Bluray.x264.anoXmous_ger.srt
File size                        : 71.5 KiB

Complete name         : Red.Riding.Hood.2011.720p.Bluray.x264.anoXmous_nor.srt
File size                        : 51.5 KiB

Complete name         : Red.Riding.Hood.2011.720p.Bluray.x264.anoXmous_spa.srt
File size                        : 55.3 KiB

Complete name         : Red.Riding.Hood.2011.720p.Bluray.x264.anoXmous_swe.srt
File size                        : 47.9 KiB


                      http://www.imdb.com/title/tt1486185/

                      This work very fine with PSP and XBOX :) 				  